<?xml version="1.0" encoding="UTF-8" standalone="no"?>
<svg width="144px" height="144px" viewBox="0 0 144 144" version="1.1" xmlns="http://www.w3.org/2000/svg" xmlns:xlink="http://www.w3.org/1999/xlink" xmlns:sketch="http://www.bohemiancoding.com/sketch/ns">
    <title>bell</title>
    <description>Created with Sketch (http://www.bohemiancoding.com/sketch)</description>
    <defs></defs>
    <g id="Page-1" stroke="none" stroke-width="1" fill="none" fill-rule="evenodd" sketch:type="MSPage">
        <g id="bell" sketch:type="MSArtboardGroup" fill="#000000">
            <path d="M69.4504151,97.2260045 C53.4642138,103.352636 42.3604976,110.359382 35.1785194,116.668218 C40.234254,121.416927 49.7157252,122.573602 59.1656964,118.953911 C71.1986598,114.345109 78.5853873,103.764224 75.6558962,95.3209897 C75.6243963,95.2184995 75.5771464,95.1273972 75.5298966,95.0281607 C73.5611526,95.7000404 71.5451587,96.4288591 69.4504151,97.2260045 L69.4504151,97.2260045 Z M79.2783852,125.653186 C48.7077282,137.369596 23.5865547,130.476729 22.515558,127.41504 C20.6885636,122.131104 32.3907779,104.507684 67.3399215,91.1107605 C102.289065,77.715464 121.803256,82.6837948 123.834999,88.5842976 C125.047746,92.0689618 109.849042,113.936775 79.2783852,125.653186 L79.2783852,125.653186 Z M108.620546,59.9033313 C90.6656005,19.9891221 81.3416289,4.83197165 51.9837183,5.45830018 C41.5415001,5.68117553 44.0457424,-2.35860526 36.0920167,0.691696031 C28.1225409,3.74362415 34.9580201,8.20763842 26.8152949,15.1118937 C3.94636455,34.4890344 6.05685812,52.4182986 16.6565758,95.148546 C21.1295622,113.142883 5.8993586,114.027877 11.9158403,131.475601 C16.3258268,144.195764 48.7707281,149.521997 82.9953738,136.401634 C117.22002,123.284525 138.828954,97.2438996 134.434717,84.5237365 C128.402486,67.0760131 116.196273,76.7084579 108.620546,59.9033313 L108.620546,59.9033313 Z" id="Fill-76" sketch:type="MSShapeGroup"></path>
        </g>
    </g>
</svg>