<?xml version="1.0" encoding="UTF-8" standalone="no"?>
<svg width="144px" height="144px" viewBox="0 0 144 144" version="1.1" xmlns="http://www.w3.org/2000/svg" xmlns:xlink="http://www.w3.org/1999/xlink" xmlns:sketch="http://www.bohemiancoding.com/sketch/ns">
    <title>book</title>
    <description>Created with Sketch (http://www.bohemiancoding.com/sketch)</description>
    <defs></defs>
    <g id="Page-1" stroke="none" stroke-width="1" fill="none" fill-rule="evenodd" sketch:type="MSPage">
        <g id="book" sketch:type="MSArtboardGroup" fill="#000000">
            <path d="M122.239951,35.8495403 L54.2424099,1.3252328 C44.9322331,-3.50834888 26.5688163,5.82982725 21.294057,14.047065 C18.936285,17.7180266 19.1025382,20.3722539 19.1025382,21.872793 L19.9489179,99.8323472 C19.9942596,101.484727 22.1102089,103.717672 23.9238797,104.819258 C27.7023605,107.096862 84.8329907,142.22853 86.4501805,143.225912 C87.3267881,143.761819 88.3545349,144 89.3671677,144 C90.2286614,144 91.1052689,143.821364 91.8911929,143.434321 C93.5990663,142.600688 94.6721548,140.992967 94.6721548,139.236384 L94.6721548,57.3468464 C94.6721548,55.6438537 93.659522,54.0673945 92.0121043,53.2158981 L30.2112718,19.2319633 C30.9065123,17.8936849 33.6572463,15.0623106 38.7052967,12.4557195 C44.0405117,9.70919708 48.0305874,10.7452836 48.9374228,11.0951116 C48.9374228,11.0951116 108.259572,42.3637852 110.073243,43.2926904 C111.886914,44.2215955 111.917141,44.3615267 111.917141,45.9513836 L111.917141,123.650428 C111.917141,127.535752 115.907217,129.1137 118.839318,129.1137 C121.771419,129.1137 124.900002,126.285303 124.900002,123.650428 L124.900002,39.9819772 C124.900002,38.2789845 123.887369,36.7010366 122.239951,35.8495403" id="Fill-261" sketch:type="MSShapeGroup"></path>
        </g>
    </g>
</svg>