<?xml version="1.0" encoding="UTF-8" standalone="no"?>
<svg width="144px" height="144px" viewBox="0 0 144 144" version="1.1" xmlns="http://www.w3.org/2000/svg" xmlns:xlink="http://www.w3.org/1999/xlink" xmlns:sketch="http://www.bohemiancoding.com/sketch/ns">
    <title>calendar</title>
    <description>Created with Sketch (http://www.bohemiancoding.com/sketch)</description>
    <defs></defs>
    <g id="Page-1" stroke="none" stroke-width="1" fill="none" fill-rule="evenodd" sketch:type="MSPage">
        <g id="calendar" sketch:type="MSArtboardGroup" fill="#000000">
            <path d="M102.4,27.2 L113.6,27.2 L113.6,0 L102.4,0 L102.4,27.2 Z M30.4,27.2 L41.6,27.2 L41.6,0 L30.4,0 L30.4,27.2 Z M16,64 L128,64 L128,128 L16,128 L16,64 Z M128,16 L120.8,16 L120.8,32 L95.2,32 L95.2,16 L48.8,16 L48.8,32 L23.2,32 L23.2,16 L16,16 C7.2,16 0,23.2 0,32 L0,128 C0,136.8 7.2,144 16,144 L128,144 C136.8,144 144,136.8 144,128 L144,32 C144,23.2 136.8,16 128,16 L128,16 Z" id="Fill-47" sketch:type="MSShapeGroup"></path>
        </g>
    </g>
</svg>