<?xml version="1.0" encoding="UTF-8" standalone="no"?>
<svg width="144px" height="144px" viewBox="0 0 144 144" version="1.1" xmlns="http://www.w3.org/2000/svg" xmlns:xlink="http://www.w3.org/1999/xlink" xmlns:sketch="http://www.bohemiancoding.com/sketch/ns">
    <title>card</title>
    <description>Created with Sketch (http://www.bohemiancoding.com/sketch)</description>
    <defs></defs>
    <g id="Page-1" stroke="none" stroke-width="1" fill="none" fill-rule="evenodd" sketch:type="MSPage">
        <g id="card" sketch:type="MSArtboardGroup" fill="#000000">
            <path d="M37.44,88.4285714 L41.76,88.4285714 L41.76,84.1428571 L46.08,84.1428571 L46.08,79.8571429 L37.44,79.8571429 L37.44,84.1428571 L33.12,84.1428571 L33.12,88.4285714 L28.8,88.4285714 L28.8,92.7142857 L37.44,92.7142857 L37.44,88.4285714 L37.44,88.4285714 Z M54.72,84.1428571 L59.04,84.1428571 L59.04,79.8571429 L50.4,79.8571429 L50.4,88.4285714 L54.72,88.4285714 L54.72,84.1428571 L54.72,84.1428571 Z M41.76,92.7142857 L50.4,92.7142857 L50.4,88.4285714 L41.76,88.4285714 L41.76,92.7142857 Z M67.68,92.7142857 L72,92.7142857 L72,88.4285714 L67.68,88.4285714 L67.68,92.7142857 Z M54.72,88.4285714 L54.72,92.7142857 L63.36,92.7142857 L63.36,88.4285714 L67.68,88.4285714 L67.68,84.1428571 L72,84.1428571 L72,79.8571429 L63.36,79.8571429 L63.36,84.1428571 L59.04,84.1428571 L59.04,88.4285714 L54.72,88.4285714 L54.72,88.4285714 Z M28.8,84.1428571 L33.12,84.1428571 L33.12,79.8571429 L28.8,79.8571429 L28.8,84.1428571 Z M14.4,36.2857143 L129.6,36.2857143 L129.6,43.4285714 L14.4,43.4285714 L14.4,36.2857143 Z M14.4,64.8571429 L129.6,64.8571429 L129.6,107.714286 L14.4,107.714286 L14.4,64.8571429 Z M129.6,22 L14.4,22 C6.48,22 0,28.4285714 0,36.2857143 L0,107.714286 C0,115.571429 6.48,122 14.4,122 L129.6,122 C137.52,122 144,115.571429 144,107.714286 L144,36.2857143 C144,28.4285714 137.52,22 129.6,22 L129.6,22 Z" id="Fill-141" sketch:type="MSShapeGroup"></path>
        </g>
    </g>
</svg>