<?xml version="1.0" encoding="UTF-8" standalone="no"?>
<svg width="144px" height="144px" viewBox="0 0 144 144" version="1.1" xmlns="http://www.w3.org/2000/svg" xmlns:xlink="http://www.w3.org/1999/xlink" xmlns:sketch="http://www.bohemiancoding.com/sketch/ns">
    <title>ellipses</title>
    <description>Created with Sketch (http://www.bohemiancoding.com/sketch)</description>
    <defs></defs>
    <g id="Page-1" stroke="none" stroke-width="1" fill="none" fill-rule="evenodd" sketch:type="MSPage">
        <g id="ellipses" sketch:type="MSArtboardGroup" fill="#000000">
            <path d="M126.782609,55 C117.281739,55 109.565217,62.8272727 109.565217,72.5 C109.565217,82.1568182 117.281739,90 126.782609,90 C136.29913,90 144,82.1568182 144,72.5 C144,62.8272727 136.29913,55 126.782609,55 L126.782609,55 Z M72,55 C62.4991304,55 54.7826087,62.8272727 54.7826087,72.5 C54.7826087,82.1568182 62.4991304,90 72,90 C81.5165217,90 89.2173913,82.1568182 89.2173913,72.5 C89.2173913,62.8272727 81.5165217,55 72,55 L72,55 Z M17.2173913,55 C7.71652174,55 0,62.8272727 0,72.5 C0,82.1568182 7.71652174,90 17.2173913,90 C26.733913,90 34.4347826,82.1568182 34.4347826,72.5 C34.4347826,62.8272727 26.733913,55 17.2173913,55 L17.2173913,55 Z" id="Fill-87" sketch:type="MSShapeGroup"></path>
        </g>
    </g>
</svg>