<?xml version="1.0" encoding="UTF-8" standalone="no"?>
<svg width="144px" height="144px" viewBox="0 0 144 144" version="1.1" xmlns="http://www.w3.org/2000/svg" xmlns:xlink="http://www.w3.org/1999/xlink" xmlns:sketch="http://www.bohemiancoding.com/sketch/ns">
    <title>gear</title>
    <description>Created with Sketch (http://www.bohemiancoding.com/sketch)</description>
    <defs></defs>
    <g id="Page-1" stroke="none" stroke-width="1" fill="none" fill-rule="evenodd" sketch:type="MSPage">
        <g id="gear" sketch:type="MSArtboardGroup" fill="#000000">
            <path d="M72,103.304795 C54.708,103.304795 40.6902857,89.2826056 40.6902857,71.9965716 C40.6902857,54.7036808 54.708,40.6849198 72,40.6849198 C89.2937143,40.6849198 103.311429,54.7036808 103.311429,71.9965716 C103.311429,89.2826056 89.2937143,103.304795 72,103.304795 L72,103.304795 Z M130.150286,71.9965716 C130.150286,63.0192848 135.677143,55.9310509 144,51.0592829 C142.501714,46.0486643 140.514857,41.2488929 138.072,36.7302509 C128.737714,39.1712776 121.184571,35.5148802 114.834857,29.1671825 C108.485143,22.8177706 106.541143,15.2598448 108.984,5.92943193 C104.465143,3.48497691 99.6651429,1.49821437 94.6508571,0 C89.7788571,8.32417504 80.9811429,13.8490548 72,13.8490548 C63.0222857,13.8490548 54.2228571,8.32417504 49.3491429,0 C44.3382857,1.49650017 39.5382857,3.48497691 35.0194286,5.92771773 C37.4605714,15.2598448 35.5182857,22.8143422 29.1685714,29.1671825 C22.8188571,35.5165944 15.2622857,39.1712776 5.92971429,36.7319651 C3.48685714,41.2488929 1.5,46.0486643 0,51.0592829 C8.32457143,55.9310509 13.8497143,63.0192848 13.8497143,71.9965716 C13.8497143,80.9738584 8.32457143,89.7797248 0,94.6480644 C1.5,99.6535403 3.48685714,104.453312 5.92971429,108.978811 C15.264,106.527499 22.8188571,108.481691 29.1685714,114.824246 C35.5165714,121.183944 37.4605714,128.726442 35.0194286,138.068854 C39.5382857,140.503024 44.3382857,142.4915 49.3525714,144 C54.2245714,135.668968 63.0222857,130.149231 72,130.149231 C80.9811429,130.149231 89.7788571,135.668968 94.6508571,144 C99.6651429,142.4915 104.465143,140.503024 108.985714,138.068854 C106.544571,128.726442 108.485143,121.183944 114.834857,114.824246 C121.184571,108.481691 128.739429,104.813295 138.072,107.264606 C140.514857,102.739108 142.501714,97.9393362 144,92.9338603 C135.677143,88.0655207 130.150286,80.9738584 130.150286,71.9965716 L130.150286,71.9965716 Z" id="Fill-73" sketch:type="MSShapeGroup"></path>
        </g>
    </g>
</svg>