<?xml version="1.0" encoding="UTF-8" standalone="no"?>
<svg width="144px" height="144px" viewBox="0 0 144 144" version="1.1" xmlns="http://www.w3.org/2000/svg" xmlns:xlink="http://www.w3.org/1999/xlink" xmlns:sketch="http://www.bohemiancoding.com/sketch/ns">
    <title>refresh</title>
    <description>Created with Sketch (http://www.bohemiancoding.com/sketch)</description>
    <defs></defs>
    <g id="Page-1" stroke="none" stroke-width="1" fill="none" fill-rule="evenodd" sketch:type="MSPage">
        <g id="refresh" sketch:type="MSArtboardGroup" fill="#000000">
            <path d="M125.172766,70.3419512 L144,70.3419512 L115.828085,103.341951 L87.6561702,70.3419512 L109.531915,70.3419512 C108.704681,43.764878 88.0238298,22.5 62.6093617,22.5 C36.6740426,22.5 15.6561702,44.6502439 15.6561702,72 C15.6561702,99.3336585 36.6740426,121.5 62.6093617,121.5 C73.0110638,121.5 82.6161702,117.926341 90.3982979,111.889756 L101.16766,123.995122 C90.5361702,132.768293 77.147234,138 62.6093617,138 C28.0340426,138 0,108.444878 0,72 C0,35.5390244 28.0340426,6 62.6093617,6 C96.6638298,6 124.345532,34.6536585 125.172766,70.3419512 Z" id="Load-More" sketch:type="MSShapeGroup"></path>
        </g>
    </g>
</svg>