<?xml version="1.0" encoding="UTF-8" standalone="no"?>
<svg width="144px" height="144px" viewBox="0 0 144 144" version="1.1" xmlns="http://www.w3.org/2000/svg" xmlns:xlink="http://www.w3.org/1999/xlink" xmlns:sketch="http://www.bohemiancoding.com/sketch/ns">
    <title>search</title>
    <description>Created with Sketch (http://www.bohemiancoding.com/sketch)</description>
    <defs></defs>
    <g id="Page-1" stroke="none" stroke-width="1" fill="none" fill-rule="evenodd" sketch:type="MSPage">
        <g id="search" sketch:type="MSArtboardGroup" fill="#0A0B09">
            <path d="M17.3527745,56.3842025 C17.3527745,34.8243038 34.8331429,17.347443 56.3782893,17.347443 C77.9416635,17.347443 97.1536638,36.5595949 97.1536638,58.1194937 C97.1536638,79.6775696 79.6732954,97.1562532 58.1099212,97.1562532 C36.5647748,97.1562532 17.3527745,77.9459241 17.3527745,56.3842025 L17.3527745,56.3842025 Z M140.754332,121.827646 L106.322199,87.3879494 C111.517095,78.8573165 114.506438,68.8374684 114.506438,58.1194937 C114.506438,26.9808608 87.5294359,0 56.3782893,0 C25.2453704,0 0,25.2437468 0,56.3842025 C0,87.5246582 26.9770023,114.503696 58.1099212,114.503696 C68.4632572,114.503696 78.1603959,111.700253 86.5086845,106.829772 L121.141323,141.457215 C124.513448,144.847595 130.018215,144.847595 133.408568,141.457215 L141.993816,132.871899 C145.384169,129.481519 144.144685,125.216203 140.754332,121.827646 L140.754332,121.827646 Z" id="Fill-93" sketch:type="MSShapeGroup"></path>
        </g>
    </g>
</svg>