<?xml version="1.0" encoding="UTF-8" standalone="no"?>
<svg width="144px" height="144px" viewBox="0 0 144 144" version="1.1" xmlns="http://www.w3.org/2000/svg" xmlns:xlink="http://www.w3.org/1999/xlink" xmlns:sketch="http://www.bohemiancoding.com/sketch/ns">
    <title>trash</title>
    <description>Created with Sketch (http://www.bohemiancoding.com/sketch)</description>
    <defs></defs>
    <g id="Page-1" stroke="none" stroke-width="1" fill="none" fill-rule="evenodd" sketch:type="MSPage">
        <g id="trash" sketch:type="MSArtboardGroup" fill="#000000">
            <path d="M87.6018421,28.035 L78.4589474,18 L66.5264474,18 L57.3835526,28.035 L44.9690789,28.035 C44.9690789,28.035 58.5665789,11.385 60.3922368,9.135 C61.7797368,7.395 63.1964474,6.75 65.0367105,6.75 L79.9486842,6.75 C81.7889474,6.75 83.2056579,7.395 84.6077632,9.135 C86.4188158,11.385 100.016316,28.035 100.016316,28.035 L87.6018421,28.035 L87.6018421,28.035 Z M95.6201316,11.325 L89.3398684,4.185 C86.93,0.645 84.3010526,0 79.1892105,0 L65.8107895,0 C60.6843421,0 58.0553947,0.645 55.6455263,4.185 L49.3652632,11.325 C30.5975,14.7 17,23.625 17,30.21 L17,31.5 C17,43.095 41.8435526,52.5 72.5,52.5 C103.141842,52.5 128,43.095 128,31.5 L128,30.21 C128,23.625 114.387895,14.7 95.6201316,11.325 L95.6201316,11.325 Z M24.215,56.34 L32.2625,129.15 C32.6860526,132.615 48.9563158,143.97 72.5,144 C96.0290789,143.97 112.299342,132.615 112.7375,129.15 L120.770395,56.34 C108.487368,63.39 90.0993421,66.75 72.5,66.75 C54.8860526,66.75 36.4980263,63.39 24.215,56.34 L24.215,56.34 Z" id="Fill-236" sketch:type="MSShapeGroup"></path>
        </g>
    </g>
</svg>